<?xml version="1.0" encoding="UTF-8" standalone="no"?>
<!-- Created with Inkscape (http://www.inkscape.org/) -->
<svg xmlns:dc="http://purl.org/dc/elements/1.1/" xmlns:cc="http://creativecommons.org/ns#" xmlns:rdf="http://www.w3.org/1999/02/22-rdf-syntax-ns#" xmlns:svg="http://www.w3.org/2000/svg" xmlns="http://www.w3.org/2000/svg" xmlns:sodipodi="http://sodipodi.sourceforge.net/DTD/sodipodi-0.dtd" xmlns:inkscape="http://www.inkscape.org/namespaces/inkscape" width="200" height="200.02023" id="svg6224" sodipodi:version="0.32" inkscape:version="0.46" version="1.0" sodipodi:docname="Tren.svg" inkscape:output_extension="org.inkscape.output.svg.inkscape">
  <defs id="defs6226"><inkscape:perspective sodipodi:type="inkscape:persp3d" inkscape:vp_x="0 : 526.18109 : 1" inkscape:vp_y="0 : 1000 : 0" inkscape:vp_z="744.09448 : 526.18109 : 1" inkscape:persp3d-origin="372.04724 : 350.78739 : 1" id="perspective6232"/>

	
	
	
<inkscape:perspective id="perspective6268" inkscape:persp3d-origin="372.04724 : 350.78739 : 1" inkscape:vp_z="744.09448 : 526.18109 : 1" inkscape:vp_y="0 : 1000 : 0" inkscape:vp_x="0 : 526.18109 : 1" sodipodi:type="inkscape:persp3d"/>
<inkscape:perspective id="perspective6292" inkscape:persp3d-origin="200 : 120 : 1" inkscape:vp_z="400 : 180 : 1" inkscape:vp_y="0 : 1000 : 0" inkscape:vp_x="0 : 180 : 1" sodipodi:type="inkscape:persp3d"/>
</defs>
  <sodipodi:namedview id="base" pagecolor="#ffffff" bordercolor="#666666" borderopacity="1.0" inkscape:pageopacity="0.0" inkscape:pageshadow="2" inkscape:zoom="2.1918093" inkscape:cx="159.52608" inkscape:cy="100.01012" inkscape:document-units="px" inkscape:current-layer="layer1" showgrid="false" inkscape:window-width="1440" inkscape:window-height="826" inkscape:window-x="0" inkscape:window-y="25"/>
  <metadata id="metadata6229">
    <rdf:RDF>
      <cc:Work rdf:about="">
        <dc:format>image/svg+xml</dc:format>
        <dc:type rdf:resource="http://purl.org/dc/dcmitype/StillImage"/>
      </cc:Work>
    </rdf:RDF>
  </metadata>
  <g inkscape:label="Capa 1" inkscape:groupmode="layer" id="layer1" transform="translate(-69.3442, -65.8554)">
    <path style="fill: rgb(255, 255, 255);" id="path5417" d="M 93.223599,69.922964 C 82.295743,69.922964 73.411801,78.827143 73.411801,89.754999 L 73.411801,241.95575 C 73.411801,252.92408 82.295743,261.80802 93.223599,261.80802 L 245.42435,261.80802 C 256.39268,261.80802 265.27662,252.90384 265.27662,241.95575 L 265.27662,89.754999 C 265.27662,78.806906 256.37244,69.922964 245.42435,69.922964 L 93.223599,69.922964 z"/>
    <path id="path5419" d="M 245.42435,265.87561 C 258.61872,265.87561 269.34421,255.17036 269.34421,241.95575 L 269.34421,89.754999 C 269.34421,76.560625 258.63896,65.855373 245.42435,65.855373 L 93.223599,65.855373 C 80.029225,65.855373 69.34421,76.540388 69.34421,89.754999 L 69.34421,241.95575 C 69.34421,255.15012 80.008988,265.87561 93.223599,265.87561 L 245.42435,265.87561 z"/>
    <g id="g6343" transform="translate(-0.94964)">
      <path id="path2251" d="M 124.66591,106.93032 C 121.61687,106.93032 120.13263,109.71076 118.88466,112.55532 C 113.79513,126.16512 108.65566,139.76019 106.79091,154.61782 C 106.40594,167.65423 105.82628,180.59514 105.97841,193.93032 C 105.97841,201.81626 114.23783,213.93032 121.16591,213.93032 L 268.07216,213.93032 C 269.02163,213.93032 270.25967,212.68027 270.25966,211.68032 L 270.22841,186.36782 C 235.61636,179.31289 205.44288,159.32269 190.16591,117.49282 C 187.9643,111.21494 182.71946,109.35377 177.88466,106.93032 L 124.66591,106.93032 z M 124.25966,115.71157 L 175.69716,115.71157 C 179.04435,115.71157 181.96922,129.74744 184.38466,136.93032 C 185.15334,139.26458 184.57186,142.99282 182.94716,142.99282 L 116.04091,142.99282 C 114.50152,142.99282 113.83235,139.9217 114.47841,137.08657 C 117.73081,129.95345 121.47249,115.71157 124.25966,115.71157 z M 195.88466,146.55532 C 199.64782,150.61389 203.70805,156.19724 207.19716,158.74282 L 207.19716,183.46157 L 197.00966,178.27407 C 196.04188,167.83621 195.94242,157.19564 195.88466,146.55532 z M 213.00966,164.52407 C 217.21817,168.50008 218.96584,169.25312 222.60341,172.21157 L 222.72841,191.27407 L 213.00966,186.71157 C 212.78413,176.27373 213.06742,175.16439 213.00966,164.52407 z M 122.07216,171.74282 C 125.4471,171.74282 128.19716,174.76948 128.19716,178.52407 C 128.19716,182.27865 125.4471,185.33657 122.07216,185.33657 C 118.69721,185.33657 115.97841,182.27865 115.97841,178.52407 C 115.97842,174.76948 118.69721,171.74282 122.07216,171.74282 z M 172.54091,171.74282 C 175.91584,171.74282 178.66591,174.76949 178.66591,178.52407 C 178.66591,182.27865 175.91584,185.33657 172.54091,185.33657 C 169.16595,185.33657 166.41591,182.27865 166.41591,178.52407 C 166.41591,174.76949 169.16595,171.74282 172.54091,171.74282 z M 227.60341,175.61782 L 237.10341,179.93032 L 237.10341,195.58657 C 233.61724,195.16297 230.39087,194.25387 227.60341,192.58657 L 227.60341,175.61782 z M 241.04091,182.02407 L 248.60341,184.18032 L 248.60341,198.36782 C 246.0276,198.23952 243.47777,197.92347 241.04091,196.86782 L 241.04091,182.02407 z M 252.47841,185.64907 L 258.66591,186.99282 L 258.66591,199.77407 C 256.52489,199.92802 254.47974,199.58454 252.47841,198.96157 L 252.47841,185.64907 z M 261.97841,187.68032 L 266.97841,188.46157 L 266.97841,201.24282 L 261.97841,200.30532 L 261.97841,187.68032 z" style="fill: rgb(255, 255, 255); fill-opacity: 1; fill-rule: evenodd; stroke: none; stroke-width: 1px; stroke-linecap: butt; stroke-linejoin: miter; stroke-opacity: 1;"/>
      <path id="path2253" style="fill: rgb(255, 255, 255); fill-opacity: 1; fill-rule: evenodd; stroke: none; stroke-width: 1px; stroke-linecap: butt; stroke-linejoin: miter; stroke-opacity: 1;" d="M 130.95159,88.380101 C 128.944,88.380101 129.00544,92.718333 130.95159,92.718333 L 139.60629,92.718333 C 146.92311,96.007204 151.24235,100.68449 153.25484,106.97256 L 156.57745,106.97256 L 156.57745,106.95043 L 159.86028,106.95043 C 161.8727,100.66258 166.19246,96.007181 173.50883,92.718333 L 181.96457,92.718333 C 184.05158,92.718333 183.73569,88.380101 181.96457,88.380101 L 130.95159,88.380101 z M 148.55942,92.718333 L 164.51591,92.718333 C 161.07593,95.94135 157.35339,99.219342 157.3534,104.25009 L 156.57745,104.25009 L 155.76172,104.25009 C 155.76171,99.203588 152.00836,95.951192 148.55942,92.718333 z"/>
      <path id="path2283" style="fill: rgb(255, 255, 255); fill-opacity: 1; fill-rule: evenodd; stroke: none; stroke-width: 1px; stroke-linecap: butt; stroke-linejoin: miter; stroke-opacity: 1;" d="M 105.98156,224.49966 L 118.67314,224.49966 L 118.67314,217.42909 L 137.79617,217.42909 L 137.79617,224.4145 L 165.813,224.4145 L 165.813,217.408 L 270.29385,217.408 L 270.29385,224.52073 C 240.85201,225.71723 210.85923,226.65103 195.28043,234.45714 L 105.96261,234.45714 L 105.98156,224.49966 z"/>
    </g>
  </g>
</svg>