<?xml version="1.0" encoding="UTF-8" standalone="no"?>
<!-- Created with Inkscape (http://www.inkscape.org/) -->

<svg
   xmlns:svg="http://www.w3.org/2000/svg"
   xmlns="http://www.w3.org/2000/svg"
   version="1.1"
   width="64"
   height="64"
   id="svg2849">
  <defs
     id="defs2851" />
  <g
     id="layer1">
    <path
       d="m 31.999998,1.5537059 c -14.186566,0 -26.1101352,9.7017271 -29.4893716,22.8347211 l 8.4438256,0 C 14.020178,15.522443 22.281823,9.1652797 31.999998,9.1652797 c 11.490655,0 20.949174,8.8816343 22.184421,20.2975273 l -38.418399,0 -5.9504374,0 -8.1540554,0 c -0.069174,0.837504 -0.1078214,1.68184 -0.1078214,2.537194 0,16.815021 13.6325862,30.446293 30.4462922,30.446293 14.186572,0 26.110139,-9.701727 29.489375,-22.83472 l -8.443824,0 c -3.065725,8.865984 -11.327369,15.223147 -21.045551,15.223147 -11.49065,0 -20.949168,-8.881635 -22.1844154,-20.297526 l 38.4184004,0 5.950436,0 8.154054,0 c 0.06918,-0.837504 0.107821,-1.681841 0.107821,-2.537194 0,-16.815023 -13.632585,-30.4462951 -30.446296,-30.4462951 z"
       id="path2818"
       style="fill:#cccccc;fill-opacity:1;stroke:#cccccc;stroke-width:2;stroke-linejoin:miter;stroke-miterlimit:4;stroke-opacity:1;stroke-dasharray:none" />
  </g>
</svg>
